<svg width="687" height="216" viewBox="0 0 687 216" fill="none" xmlns="http://www.w3.org/2000/svg">
<rect width="686.75" height="215.176" rx="16" fill="#090F19"/>
<path fill-rule="evenodd" clip-rule="evenodd" d="M305.806 100.828V108.732H294.506V108.74C291.998 108.602 289.584 107.988 287.326 106.91C285.086 105.844 283.1 104.37 281.422 102.534C279.742 100.698 278.454 98.5861 277.59 96.2621C276.794 94.1141 276.396 91.8701 276.398 89.5802C276.398 87.0902 276.87 84.6662 277.802 82.3662C278.768 79.9862 280.186 77.8482 282.014 76.0223C283.844 74.1923 285.98 72.7723 288.36 71.8083C290.235 71.0463 292.196 70.5932 294.207 70.4521C294.66 70.4203 295.115 70.4043 295.572 70.4043C295.573 70.4043 295.574 70.4043 295.574 70.4043C295.575 70.4043 295.576 70.4043 295.576 70.4043C297.532 70.4043 299.415 70.6893 301.235 71.2536C301.759 71.4154 302.277 71.6004 302.788 71.8083C305.168 72.7723 307.304 74.1923 309.134 76.0223C310.962 77.8482 312.38 79.9862 313.346 82.3662C314.278 84.6655 314.75 87.0888 314.75 89.578V89.5802L314.744 93.5482C314.664 93.5542 314.584 93.5582 314.504 93.5622L287.62 93.5142L285.176 93.5442C285.138 93.5461 285.101 93.5467 285.064 93.5461C286.594 97.598 290.409 100.573 294.994 100.81L305.806 100.828ZM306.088 85.6183L285.066 85.6022C285.622 84.1322 286.489 82.7843 287.634 81.6402C287.96 81.3137 288.301 81.0117 288.655 80.734C290.073 79.6238 291.699 78.9021 293.387 78.5695C294.108 78.4274 294.841 78.3564 295.574 78.3562C296.307 78.3564 297.04 78.4274 297.762 78.5695C299.451 78.9026 301.08 79.6258 302.499 80.7385C302.851 81.015 303.19 81.3155 303.514 81.6402C304.663 82.7884 305.533 84.142 306.088 85.6183Z" fill="white"/>
<path fill-rule="evenodd" clip-rule="evenodd" d="M64.014 90.9185V90.9145L64.022 78.1366L64.03 60.7447C64.024 60.5227 64.014 60.3027 64 60.0807V59.8047L71.9539 59.8267C71.9599 59.9527 71.9659 60.0807 71.9679 60.2087L71.9457 82.454C73.3174 81.8252 74.5382 80.9291 75.5439 79.8348C77.2599 77.9668 78.3479 75.5228 78.4919 72.8508L86.4439 72.8648C86.3799 74.9508 85.9779 76.9928 85.2459 78.9508C84.3779 81.2728 83.0839 83.3807 81.3979 85.2127C79.7159 87.0467 77.7259 88.5147 75.4839 89.5767C75.3548 89.6378 75.2251 89.6974 75.0949 89.7554C76.08 89.9543 77.0499 90.2318 78 90.587C80.322 91.455 82.43 92.749 84.2619 94.435C86.0959 96.117 87.5639 98.107 88.6259 100.349C89.7239 102.671 90.3379 105.159 90.4479 107.745L90.4519 107.831V107.915L82.5059 108.001C82.354 104.941 80.984 102.219 78.884 100.289C77.0229 98.5793 74.5901 97.493 71.9297 97.3426L71.9279 98.9504L71.9239 103.3L71.9519 107.22C71.9599 107.48 71.9719 107.736 71.9859 107.992H64.006V107.63V107.358L64.014 90.9185Z" fill="white"/>
<path d="M132.224 82.3662C131.258 79.9862 129.84 77.8502 128.012 76.0223C126.182 74.1923 124.046 72.7743 121.666 71.8083C119.368 70.8763 116.94 70.4043 114.45 70.4043C114.204 70.4043 113.958 70.4083 113.714 70.4203C111.386 70.4763 109.116 70.9463 106.962 71.8203C104.582 72.7863 102.446 74.2043 100.616 76.0343C98.7879 77.8622 97.3699 79.9982 96.4039 82.3782C95.4719 84.6782 94.9999 87.1042 94.9999 89.5942C94.9999 92.0841 95.4719 94.5101 96.4039 96.8081C97.3699 99.1881 98.7879 101.324 100.616 103.154C102.446 104.982 104.582 106.4 106.962 107.366C109.26 108.298 111.688 108.77 114.178 108.77C114.424 108.77 114.67 108.766 114.914 108.754C117.242 108.698 119.512 108.228 121.666 107.354C124.046 106.388 126.182 104.97 128.012 103.142C129.84 101.312 131.258 99.1761 132.224 96.7961C133.156 94.4981 133.628 92.0701 133.628 89.5822C133.628 87.0942 133.156 84.6662 132.224 82.3662ZM122.392 97.5221C120.32 99.5941 117.634 100.686 114.914 100.796C114.874 100.796 114.834 100.8 114.794 100.8C114.434 100.82 114.074 100.824 113.714 100.808C110.994 100.698 108.308 99.6061 106.236 97.5341C104.114 95.4141 102.946 92.5941 102.946 89.5942C102.946 86.5942 104.114 83.7722 106.236 81.6522C108.306 79.5802 110.994 78.4882 113.714 78.3782C113.754 78.3762 113.792 78.3742 113.83 78.3742C114.036 78.3622 114.242 78.3562 114.45 78.3562C114.604 78.3562 114.758 78.3602 114.914 78.3662C117.634 78.4762 120.322 79.5682 122.392 81.6402C124.514 83.7602 125.682 86.5822 125.682 89.5822C125.682 92.5821 124.514 95.4021 122.392 97.5221Z" fill="white"/>
<path fill-rule="evenodd" clip-rule="evenodd" d="M179.537 91.1894L179.541 89.7974L179.537 89.7954L179.533 89.8314C179.534 89.8004 179.535 89.7695 179.536 89.7386C179.537 89.6777 179.539 89.6171 179.539 89.5574C179.539 89.3226 179.535 89.0878 179.526 88.8548L179.545 88.8549V88.8509V88.8349C179.711 86.2889 180.733 83.8889 182.485 81.9829C184.515 79.7749 187.283 78.489 190.277 78.361C196.439 78.101 201.667 82.8809 201.969 89.0309L201.959 99.8808L201.949 107.853H209.899V107.177L209.905 99.2028L209.909 95.7528L209.915 88.9449V88.7729C209.803 86.1889 209.191 83.7009 208.091 81.3769C207.029 79.137 205.561 77.147 203.729 75.463C201.897 73.779 199.789 72.483 197.467 71.615C195.059 70.715 192.529 70.315 189.945 70.423C187.359 70.531 184.871 71.145 182.549 72.245C180.307 73.307 178.317 74.775 176.633 76.607C176.255 77.0185 175.896 77.4438 175.558 77.8824C175.219 77.4433 174.86 77.0175 174.481 76.6055C172.797 74.7735 170.807 73.3055 168.565 72.2435C166.243 71.1435 163.755 70.5295 161.169 70.4215C158.585 70.3135 156.055 70.7135 153.647 71.6135C151.325 72.4815 149.217 73.7775 147.385 75.4615C145.553 77.1455 144.085 79.1355 143.023 81.3754C141.923 83.6994 141.311 86.1874 141.199 88.7714V88.9434L141.205 95.7513L141.209 99.2013H141.205L141.215 107.175V107.851H149.165L149.155 99.8793L149.145 89.0294C149.447 82.8794 154.675 78.0995 160.837 78.3595C163.831 78.4875 166.599 79.7735 168.629 81.9814C170.381 83.8874 171.403 86.2874 171.569 88.8334V88.8494C171.573 88.8754 171.573 88.8993 171.573 88.9253V88.9254C171.573 88.9268 171.574 88.9281 171.574 88.9294C171.576 88.9355 171.577 88.9408 171.577 88.9474C171.599 89.2614 171.665 90.2994 171.643 91.3994C171.623 91.7434 171.597 92.0694 171.569 92.3574V92.3814C171.565 92.4334 171.561 92.4814 171.557 92.5274C171.545 92.6654 171.533 92.7814 171.523 92.8774C171.52 92.8987 171.518 92.92 171.516 92.9414C171.511 92.984 171.506 93.0267 171.499 93.0694C171.489 93.1574 171.481 93.2034 171.481 93.2034C171.478 93.2224 171.475 93.2419 171.472 93.2614C171.469 93.2809 171.466 93.3004 171.463 93.3194V93.3314C171.461 93.3494 171.459 93.3674 171.455 93.3834C171.455 93.3894 171.455 93.3954 171.451 93.3994C171.291 94.4234 170.989 95.3993 170.569 96.3073V107.851C170.911 107.637 171.245 107.411 171.573 107.175C172.189 106.731 172.779 106.251 173.343 105.731C175.175 104.047 176.643 102.057 177.703 99.8153C178.803 97.4933 179.415 95.0054 179.525 92.4194C179.537 92.1454 179.543 91.8694 179.543 91.5974C179.543 91.4614 179.541 91.3254 179.537 91.1894Z" fill="white"/>
<g clip-path="url(#clip0_629_21777)">
<path fill-rule="evenodd" clip-rule="evenodd" d="M217.569 65.9195L217.577 63.0096L217.581 62.8516L225.515 62.8556C225.515 62.8621 225.515 62.8688 225.514 62.8757C225.514 62.8899 225.513 62.9047 225.515 62.9196L225.489 67.2695L225.475 69.4015L225.471 70.1295C225.471 70.1295 225.469 70.7215 225.461 70.9155H217.553V70.8095L217.561 68.0575L217.569 65.9195ZM217.553 107.52L217.561 97.2616L217.569 89.2876L217.577 78.4377C217.571 78.2997 217.561 78.1617 217.547 78.0237V77.8517L225.501 77.8657C225.507 77.9437 225.513 78.0237 225.515 78.1037L225.489 94.3216L225.475 102.274L225.471 104.988L225.499 107.434C225.507 107.596 225.519 107.756 225.533 107.916H217.569C217.565 107.864 217.563 107.814 217.56 107.764C217.559 107.739 217.558 107.714 217.557 107.69L217.553 107.604V107.52Z" fill="white"/>
</g>
<path d="M233.263 88.9422L237.595 93.5221H233.263V88.9422Z" fill="white"/>
<path d="M233.263 88.9422L237.597 93.5221H263.247C262.736 94.8876 261.965 96.1314 260.992 97.1901C259.062 99.2901 256.34 100.66 253.28 100.812L232.999 100.81V108.758H253.45L253.536 108.754C256.122 108.644 258.61 108.03 260.932 106.932C263.174 105.87 265.164 104.402 266.846 102.568C268.532 100.736 269.826 98.6281 270.694 96.3061C271.172 95.0276 271.51 93.7134 271.704 92.3744C271.796 91.7659 271.886 90.9987 271.89 90.286C271.891 90.264 271.892 90.2421 271.892 90.2202H271.89V89.9142C271.89 90.017 271.886 90.1191 271.879 90.2201L271.877 90.2201C271.884 90.1197 271.888 90.0184 271.888 89.9162L271.89 89.9142L271.89 89.8982C271.886 87.5342 269.99 85.6182 267.636 85.5762H267.48C265.203 85.6168 263.354 87.4112 263.231 89.6673C263.353 87.4102 265.202 85.6148 267.48 85.5742H241.935C242.446 84.2346 243.208 83.0139 244.165 81.9722C246.095 79.8722 248.817 78.5022 251.877 78.3502L264.09 78.3542V70.4043H251.707L251.621 70.4083C249.035 70.5183 246.547 71.1323 244.225 72.2303C241.983 73.2923 239.993 74.7603 238.311 76.5943C236.625 78.4262 235.331 80.5342 234.463 82.8562C234.13 83.7461 233.866 84.6533 233.67 85.5742H233.669C233.669 85.5742 233.263 87.4022 233.263 88.9422Z" fill="white"/>
<path d="M340.75 77.5574C338.078 77.7014 335.634 78.7894 333.766 80.5054C331.666 82.4354 330.296 85.1574 330.144 88.2173L330.116 90.6613L330.12 93.3773L330.134 101.329L330.144 107.985L322.216 107.973V106.363L322.206 98.3893L322.198 88.1313V88.0473L322.202 87.9613C322.312 85.3754 322.926 82.8874 324.024 80.5654C325.086 78.3234 326.554 76.3334 328.388 74.6514C330.22 72.9654 332.328 71.6715 334.65 70.8035C336.608 70.0715 338.65 69.6695 340.736 69.6055L340.75 77.5574Z" fill="white"/>
<rect x="110.339" y="85.6133" width="7.94921" height="7.94921" fill="url(#paint0_linear_629_21777)"/>
<path d="M73.081 147.093C71.8749 147.093 70.7873 146.802 69.8181 146.22C68.8705 145.617 68.2136 144.928 67.8474 144.153L67.7828 146.77H64.423V123.024H67.8474V132.167L67.6859 134.687C68.052 133.826 68.7628 133.093 69.8181 132.49C70.895 131.866 72.058 131.553 73.3072 131.553C74.7717 131.553 76.0424 131.887 77.1193 132.555C78.2177 133.201 79.0577 134.116 79.6392 135.301C80.2207 136.464 80.5114 137.821 80.5114 139.371C80.5114 140.944 80.1669 142.311 79.4777 143.474C78.81 144.637 77.9054 145.531 76.7639 146.156C75.644 146.78 74.4163 147.093 73.081 147.093ZM72.4995 144.185C73.8994 144.185 74.9763 143.744 75.7301 142.86C76.4839 141.956 76.8608 140.793 76.8608 139.371C76.8608 137.928 76.4839 136.765 75.7301 135.882C74.9979 134.978 73.921 134.525 72.4995 134.525C71.2719 134.525 70.2381 134.956 69.3981 135.818C68.5582 136.658 68.1382 137.767 68.1382 139.145V139.371C68.1382 140.298 68.332 141.127 68.7197 141.859C69.1289 142.591 69.6566 143.162 70.3027 143.571C70.9704 143.98 71.7026 144.185 72.4995 144.185ZM88.4971 147.222L82.359 131.941H86.3003L89.4663 141.374L90.1771 143.668L90.8878 141.374L94.2153 131.941H98.0275L88.9171 154.911H85.2988L88.4971 147.222ZM109.502 134.784H106.885V131.941H109.502V125.9L113.024 125.124V131.941H116.448V134.784H113.024V146.77H109.502V134.784ZM125.842 147.093C124.507 147.093 123.268 146.78 122.127 146.156C121.007 145.51 120.102 144.605 119.413 143.442C118.745 142.257 118.411 140.879 118.411 139.307C118.411 137.756 118.702 136.399 119.284 135.236C119.887 134.073 120.737 133.169 121.836 132.522C122.934 131.876 124.227 131.553 125.713 131.553C126.574 131.553 127.382 131.704 128.136 132.006C128.889 132.307 129.525 132.684 130.042 133.136C130.559 133.567 130.903 133.998 131.075 134.429L131.14 131.941H134.468V146.77H131.172L131.108 144.153C130.742 144.928 130.074 145.617 129.105 146.22C128.136 146.802 127.048 147.093 125.842 147.093ZM126.423 144.185C127.651 144.185 128.685 143.765 129.525 142.925C130.365 142.064 130.785 140.944 130.785 139.565V139.339C130.785 138.413 130.591 137.584 130.203 136.852C129.816 136.119 129.288 135.549 128.62 135.139C127.953 134.73 127.22 134.525 126.423 134.525C125.045 134.525 123.979 134.978 123.225 135.882C122.471 136.765 122.094 137.918 122.094 139.339C122.094 140.782 122.46 141.956 123.193 142.86C123.947 143.744 125.023 144.185 126.423 144.185ZM139.418 131.941H143.036V146.77H139.418V131.941ZM141.195 129.163C140.527 129.163 139.967 128.937 139.515 128.484C139.063 128.032 138.836 127.472 138.836 126.804C138.836 126.201 139.063 125.684 139.515 125.254C139.967 124.823 140.527 124.607 141.195 124.607C141.841 124.607 142.39 124.823 142.842 125.254C143.295 125.684 143.521 126.201 143.521 126.804C143.521 127.472 143.295 128.032 142.842 128.484C142.412 128.937 141.863 129.163 141.195 129.163ZM148.158 123.024H151.615V146.77H148.158V123.024ZM165.557 138.531L161.164 146.77H160.55L154.315 131.941H158.062L161.261 140.567L165.493 131.941H165.622L169.886 140.502L173.085 131.941H176.768L170.565 146.77H169.951L165.557 138.531ZM185.722 147.093C184.387 147.093 183.148 146.78 182.007 146.156C180.887 145.51 179.982 144.605 179.293 143.442C178.625 142.257 178.291 140.879 178.291 139.307C178.291 137.756 178.582 136.399 179.164 135.236C179.767 134.073 180.617 133.169 181.716 132.522C182.814 131.876 184.107 131.553 185.593 131.553C186.454 131.553 187.262 131.704 188.016 132.006C188.769 132.307 189.405 132.684 189.922 133.136C190.439 133.567 190.783 133.998 190.955 134.429L191.02 131.941H194.348V146.77H191.052L190.988 144.153C190.622 144.928 189.954 145.617 188.985 146.22C188.016 146.802 186.928 147.093 185.722 147.093ZM186.303 144.185C187.531 144.185 188.565 143.765 189.405 142.925C190.245 142.064 190.665 140.944 190.665 139.565V139.339C190.665 138.413 190.471 137.584 190.083 136.852C189.696 136.119 189.168 135.549 188.5 135.139C187.833 134.73 187.1 134.525 186.303 134.525C184.925 134.525 183.859 134.978 183.105 135.882C182.351 136.765 181.974 137.918 181.974 139.339C181.974 140.782 182.34 141.956 183.073 142.86C183.827 143.744 184.903 144.185 186.303 144.185ZM198.943 131.941H202.432V134.849C202.776 133.858 203.336 133.061 204.112 132.458C204.887 131.855 205.77 131.553 206.761 131.553C207.45 131.553 207.924 131.618 208.182 131.747L207.698 135.269C207.504 135.139 207.084 135.075 206.438 135.075C205.425 135.075 204.499 135.398 203.659 136.044C202.841 136.69 202.432 137.724 202.432 139.145V146.77H198.943V131.941ZM217.208 147.093C215.872 147.093 214.634 146.78 213.493 146.156C212.373 145.51 211.468 144.605 210.779 143.442C210.111 142.257 209.777 140.879 209.777 139.307C209.777 136.959 210.434 135.085 211.748 133.686C213.062 132.264 214.839 131.553 217.079 131.553C218.328 131.553 219.469 131.866 220.503 132.49C221.537 133.093 222.237 133.826 222.603 134.687L222.441 132.167V123.024H225.866V146.77H222.538L222.474 144.153C222.108 144.928 221.44 145.617 220.471 146.22C219.502 146.802 218.414 147.093 217.208 147.093ZM217.789 144.153C219.017 144.153 220.051 143.733 220.891 142.893C221.731 142.031 222.151 140.911 222.151 139.533V139.307C222.151 138.381 221.957 137.551 221.569 136.819C221.181 136.087 220.654 135.516 219.986 135.107C219.318 134.698 218.586 134.493 217.789 134.493C216.411 134.493 215.345 134.945 214.591 135.85C213.837 136.733 213.46 137.885 213.46 139.307C213.46 140.75 213.826 141.924 214.559 142.828C215.312 143.711 216.389 144.153 217.789 144.153ZM237.504 147.093C235.738 147.093 234.263 146.748 233.078 146.059C231.894 145.348 231.022 144.411 230.462 143.248C229.902 142.064 229.622 140.771 229.622 139.371C229.622 137.799 229.945 136.421 230.591 135.236C231.259 134.052 232.174 133.147 233.337 132.522C234.5 131.876 235.814 131.553 237.278 131.553C239.561 131.553 241.252 132.189 242.35 133.459C243.47 134.709 244.03 136.475 244.03 138.758C244.03 139.339 243.998 139.942 243.933 140.567H233.272C233.509 141.881 233.972 142.828 234.661 143.41C235.372 143.991 236.352 144.282 237.601 144.282C238.635 144.282 239.486 144.196 240.154 144.024C240.821 143.851 241.435 143.614 241.995 143.313L243.061 145.8C242.523 146.145 241.79 146.446 240.864 146.705C239.938 146.963 238.818 147.093 237.504 147.093ZM240.638 138.144C240.66 136.808 240.369 135.872 239.766 135.333C239.163 134.773 238.301 134.493 237.181 134.493C234.92 134.493 233.617 135.71 233.272 138.144H240.638ZM247.688 131.941H251.113L251.145 134.655C251.554 133.75 252.2 133.007 253.083 132.426C253.966 131.844 255 131.553 256.185 131.553C257.714 131.553 258.888 131.876 259.706 132.522C260.525 133.147 261.074 134.03 261.354 135.172C261.634 136.313 261.774 137.799 261.774 139.63V146.77H258.285V139.727C258.285 137.853 258.102 136.507 257.735 135.689C257.369 134.849 256.615 134.429 255.474 134.429C254.828 134.429 254.171 134.633 253.503 135.042C252.836 135.43 252.276 136.001 251.823 136.755C251.393 137.508 251.177 138.391 251.177 139.404V146.77H247.688V131.941Z" fill="white"/>
<g clip-path="url(#clip1_629_21777)">
<path d="M567.769 169.149C585.156 168.016 587.402 152.099 580.603 133.17C573.808 114.241 579.025 100.212 593.549 98.6044C608.072 96.9964 621.687 114.516 616.694 136.84C611.702 159.169 590.613 179.721 562.399 180.671L567.774 169.149H567.769Z" fill="#EAAC71"/>
<path d="M567.769 169.149C585.156 168.016 587.402 152.099 580.603 133.17C573.808 114.241 579.025 100.212 593.549 98.6044C608.072 96.9964 621.687 114.516 616.694 136.84C611.702 159.169 590.613 179.721 562.399 180.671L567.774 169.149H567.769Z" fill="#AE6745"/>
<path d="M572.042 169.15C589.429 168.017 591.052 150.834 584.258 131.905C577.504 113.088 583.242 100.392 597.561 98.6412C596.239 98.4728 594.901 98.4575 593.549 98.6055C579.025 100.214 573.808 114.242 580.603 133.171C587.397 152.1 585.151 168.017 567.769 169.15L562.394 180.672C563.889 180.621 565.359 180.513 566.814 180.355L572.042 169.15Z" fill="#C18B71"/>
<path d="M606.852 132.619C606.541 132.293 606.035 132.288 605.714 132.594C604.723 133.554 603.702 134.57 602.676 135.642C601.119 132.839 599.307 129.955 597.428 127.167C599.2 125.228 601.063 123.278 602.942 121.445C603.682 122.767 604.371 124.099 604.989 125.416C605.126 125.713 605.417 125.881 605.719 125.881C605.831 125.881 605.948 125.856 606.061 125.804C606.459 125.61 606.632 125.136 606.444 124.732C605.749 123.257 604.968 121.772 604.141 120.291C604.846 119.628 605.545 118.984 606.25 118.367C606.581 118.071 606.612 117.56 606.321 117.233C606.025 116.902 605.514 116.871 605.188 117.162C604.57 117.713 603.942 118.28 603.319 118.867C601.476 115.727 599.429 112.67 597.444 109.893C598.133 109.214 598.842 108.545 599.557 107.886C599.884 107.59 599.904 107.08 599.608 106.748C599.302 106.416 598.796 106.401 598.47 106.702C597.801 107.32 597.137 107.948 596.484 108.575C595.238 106.881 594.034 105.308 592.936 103.92C592.66 103.573 592.16 103.511 591.808 103.792C591.461 104.068 591.405 104.568 591.68 104.92C592.808 106.35 594.049 107.968 595.335 109.724C593.191 111.868 591.18 114.058 589.388 116.11C586.249 112.067 583.951 109.367 583.89 109.295C583.604 108.958 583.094 108.917 582.762 109.208C582.425 109.499 582.384 110 582.67 110.337C582.731 110.408 585.105 113.195 588.316 117.351C586.152 119.893 584.37 122.144 583.15 123.737C582.103 122.451 581.46 121.705 581.43 121.675C581.139 121.338 580.633 121.297 580.296 121.588C579.964 121.879 579.924 122.384 580.215 122.716C580.245 122.752 580.975 123.604 582.154 125.054C581.639 125.743 581.353 126.146 581.343 126.167C581.082 126.529 581.169 127.03 581.532 127.285C581.675 127.387 581.833 127.433 581.996 127.433C582.246 127.433 582.497 127.316 582.65 127.096C582.66 127.081 582.849 126.815 583.191 126.351C584.809 128.388 586.933 131.144 589.169 134.289C587.193 136.693 585.575 138.771 584.477 140.195C584.105 139.68 583.737 139.184 583.38 138.71C583.114 138.362 582.609 138.291 582.251 138.562C581.899 138.832 581.833 139.338 582.103 139.69C582.542 140.262 582.997 140.884 583.461 141.533C583.13 141.977 582.946 142.227 582.93 142.247C582.665 142.6 582.742 143.105 583.104 143.37C583.247 143.472 583.41 143.529 583.574 143.529C583.824 143.529 584.069 143.411 584.227 143.197C584.237 143.187 584.304 143.085 584.431 142.921C586.049 145.295 587.744 148.001 589.342 150.772C587.683 152.784 586.203 154.616 585.008 156.117C584.88 155.954 584.794 155.852 584.773 155.826C584.493 155.484 583.982 155.438 583.645 155.719C583.303 156 583.252 156.505 583.533 156.847C583.543 156.858 583.711 157.062 583.977 157.414C582.629 159.114 581.828 160.155 581.797 160.201C581.527 160.553 581.593 161.059 581.94 161.329C582.088 161.442 582.262 161.498 582.43 161.498C582.67 161.498 582.91 161.386 583.068 161.181C583.094 161.141 583.788 160.247 584.952 158.772C585.927 160.206 587.081 162.182 587.31 163.744C587.372 164.142 587.709 164.433 588.102 164.433C588.143 164.433 588.178 164.433 588.219 164.423C588.658 164.362 588.959 163.953 588.898 163.514C588.602 161.488 587.101 159.042 585.993 157.465C587.142 156.02 588.576 154.244 590.19 152.278C591.563 154.729 592.844 157.179 593.911 159.451C594.049 159.747 594.34 159.915 594.636 159.915C594.753 159.915 594.866 159.89 594.983 159.839C595.381 159.645 595.555 159.17 595.366 158.767C594.202 156.296 592.793 153.611 591.282 150.951C592.803 149.113 594.457 147.158 596.178 145.178C597.127 146.852 598.01 148.531 598.791 150.191C598.929 150.487 599.215 150.655 599.521 150.655C599.634 150.655 599.751 150.63 599.858 150.578C600.262 150.385 600.435 149.91 600.241 149.506C599.368 147.653 598.368 145.77 597.296 143.901C598.939 142.028 600.629 140.149 602.303 138.368C602.635 139.011 602.952 139.649 603.243 140.277C603.381 140.568 603.672 140.741 603.968 140.741C604.085 140.741 604.197 140.716 604.315 140.665C604.713 140.476 604.887 139.996 604.698 139.598C604.315 138.791 603.906 137.969 603.467 137.137C604.611 135.948 605.734 134.815 606.821 133.763C607.138 133.452 607.148 132.941 606.842 132.63L606.852 132.619ZM596.285 111.041C598.276 113.823 600.307 116.881 602.125 120.005C600.21 121.858 598.317 123.829 596.504 125.804C594.416 122.767 592.288 119.888 590.389 117.407C592.16 115.365 594.151 113.185 596.285 111.036V111.041ZM584.191 125.023C585.355 123.492 587.132 121.236 589.322 118.653C591.216 121.139 593.334 124.013 595.397 127.03C593.543 129.087 591.798 131.124 590.23 133.007C587.949 129.812 585.794 127.03 584.191 125.023ZM590.44 149.455C588.806 146.658 587.091 143.932 585.457 141.568C586.483 140.221 588.112 138.128 590.133 135.652C591.889 138.184 593.686 140.92 595.33 143.702C593.62 145.668 591.961 147.618 590.435 149.455H590.44ZM596.443 142.431C594.774 139.628 592.956 136.887 591.19 134.365C592.742 132.497 594.473 130.46 596.321 128.403C598.194 131.195 599.991 134.074 601.512 136.862C599.822 138.653 598.112 140.537 596.443 142.431Z" fill="#924921"/>
<path d="M586.661 140.004C586.508 139.351 586.35 138.687 586.171 138.023C585.523 138.845 584.956 139.586 584.482 140.193C584.109 139.677 583.741 139.182 583.384 138.708C583.129 138.376 582.654 138.299 582.307 138.529C582.506 139.259 582.69 139.979 582.858 140.688C583.057 140.969 583.262 141.245 583.466 141.536C583.333 141.714 583.226 141.852 583.144 141.97C583.257 142.49 583.359 143.006 583.445 143.521C583.491 143.532 583.537 143.532 583.578 143.532C583.828 143.532 584.073 143.414 584.232 143.2C584.242 143.19 584.308 143.087 584.436 142.924C585.579 144.599 586.753 146.441 587.912 148.356C587.846 147.177 587.723 145.967 587.55 144.726C586.845 143.629 586.146 142.562 585.457 141.571C585.794 141.127 586.202 140.601 586.661 140.004Z" fill="#A66A49"/>
<path d="M582.542 110.124C582.654 109.777 582.782 109.435 582.914 109.104C582.858 109.129 582.802 109.165 582.756 109.206C582.485 109.44 582.409 109.808 582.542 110.124Z" fill="#A66A49"/>
<path d="M587.923 152.506C586.835 153.838 585.85 155.058 585.013 156.115C584.885 155.952 584.799 155.85 584.778 155.824C584.528 155.518 584.094 155.451 583.767 155.64C583.691 156.038 583.614 156.432 583.522 156.819C583.522 156.83 583.533 156.84 583.538 156.845C583.543 156.85 583.716 157.059 583.982 157.412C583.609 157.886 583.277 158.305 582.991 158.667C582.68 159.576 582.307 160.439 581.868 161.251C581.894 161.276 581.914 161.302 581.945 161.327C582.093 161.439 582.267 161.496 582.435 161.496C582.675 161.496 582.915 161.383 583.073 161.179C583.099 161.138 583.793 160.245 584.957 158.77C585.314 159.295 585.697 159.893 586.044 160.51C586.325 159.913 586.575 159.29 586.79 158.637C586.519 158.208 586.254 157.81 585.998 157.452C586.478 156.85 587.009 156.186 587.576 155.482C587.744 154.522 587.856 153.532 587.923 152.506Z" fill="#A66A49"/>
<path d="M582.154 125.053C581.639 125.742 581.353 126.145 581.342 126.165C581.082 126.528 581.169 127.028 581.531 127.283C581.674 127.385 581.833 127.431 581.996 127.431C582.246 127.431 582.496 127.314 582.649 127.095C582.649 127.084 582.68 127.049 582.731 126.977C582.297 125.272 581.97 123.628 581.756 122.051C581.557 121.816 581.445 121.683 581.429 121.668C581.138 121.331 580.633 121.29 580.296 121.581C579.964 121.872 579.923 122.378 580.214 122.709C580.245 122.745 580.975 123.598 582.154 125.047V125.053Z" fill="#A66A49"/>
<path d="M593.554 98.6044C592.63 98.7065 591.854 99.0026 591.006 99.2017C604.295 99.3191 616.082 115.491 611.472 136.095C606.934 156.402 588.546 174.979 563.685 177.924L562.399 180.676C590.619 179.721 611.707 159.174 616.699 136.845C621.692 114.516 608.077 96.9964 593.554 98.6044Z" fill="#924921"/>
<path d="M593.553 98.6044C592.629 98.7065 591.92 98.8852 591.072 99.0843C604.33 98.3849 616.081 115.491 611.477 136.095C606.938 156.402 588.551 174.979 563.69 177.924L562.403 180.676C590.623 179.721 611.712 159.174 616.704 136.845C621.697 114.516 608.082 96.9964 593.559 98.6044H593.553Z" stroke="#592832" stroke-width="2.75664" stroke-linecap="round" stroke-linejoin="round"/>
<path d="M567.769 169.149C585.156 168.016 587.402 152.099 580.603 133.17C573.808 114.241 579.025 100.212 593.549 98.6044C608.072 96.9964 621.687 114.516 616.694 136.84C611.702 159.169 590.613 179.721 562.399 180.671L567.774 169.149H567.769Z" stroke="#592832" stroke-width="2.75664" stroke-linecap="round" stroke-linejoin="round"/>
<path d="M559.643 113.611C551.547 117.91 541.015 120.503 529.494 120.503C522.076 120.503 515.067 119.426 508.855 117.511C509.968 122.514 510.861 130.794 507.487 138.809C502.152 151.479 493.479 179.158 532.495 179.158C557.06 179.158 575.841 155.262 569.787 136.808C566.892 129.406 559.771 122.943 559.643 113.611Z" fill="#EAAC71"/>
<path d="M510.539 138.809C513.719 131.259 513.107 123.474 512.096 118.415C510.993 118.14 509.911 117.838 508.855 117.512C509.967 122.515 510.861 130.795 507.486 138.809C502.152 151.48 493.479 179.158 532.495 179.158C532.909 179.158 533.317 179.148 533.726 179.138C496.807 178.28 505.286 151.281 510.539 138.809Z" fill="#F5D7BB"/>
<path d="M554.599 172.16C547.57 166.372 542.292 156.994 541.204 145.538C539.402 126.548 514.557 123.909 508.778 135.022C508.441 136.283 508.017 137.549 507.486 138.81C502.152 151.481 493.479 179.159 532.495 179.159C540.76 179.159 548.366 176.454 554.594 172.16H554.599Z" fill="#FFE5C0"/>
<path d="M541.46 178.082C542.016 177.949 542.562 177.796 543.109 177.638C543.262 177.592 543.415 177.546 543.568 177.5C543.961 177.382 544.349 177.255 544.732 177.127C544.905 177.066 545.084 177.005 545.258 176.943C545.635 176.811 546.008 176.668 546.381 176.525C546.534 176.463 546.687 176.407 546.84 176.346C547.871 175.927 548.877 175.468 549.862 174.973C550.01 174.896 550.158 174.82 550.301 174.743C550.648 174.564 550.99 174.381 551.327 174.192C551.491 174.1 551.654 174.008 551.817 173.911C552.149 173.717 552.481 173.523 552.803 173.324C552.946 173.237 553.094 173.15 553.232 173.058C553.691 172.767 554.145 172.471 554.589 172.165C554.186 171.833 553.788 171.486 553.4 171.129C553.288 171.027 553.175 170.914 553.063 170.807C552.787 170.547 552.507 170.287 552.236 170.016C552.114 169.893 551.991 169.766 551.869 169.638C551.613 169.373 551.358 169.102 551.108 168.827C550.985 168.694 550.868 168.556 550.751 168.423C550.506 168.142 550.26 167.862 550.021 167.571C546.238 162.987 543.348 157.157 541.939 150.434C539.785 153.594 536.278 160.475 538.3 169.751C538.591 171.083 537.723 172.4 536.39 172.701C524.629 175.376 512.418 173.227 503.944 165.401L503.821 165.381C506.43 173.115 514.251 179.164 532.485 179.164C535.579 179.164 538.575 178.786 541.444 178.087L541.46 178.082Z" fill="#DBAB7A"/>
<path d="M510.539 138.808C511.657 136.154 512.3 133.474 512.627 130.891C510.999 131.937 509.661 133.315 508.778 135.02C508.701 135.317 508.615 135.608 508.528 135.904C508.507 135.975 508.482 136.052 508.461 136.123C508.395 136.338 508.324 136.557 508.252 136.771C508.222 136.863 508.191 136.96 508.155 137.052C508.084 137.262 508.007 137.466 507.931 137.675C507.9 137.762 507.864 137.849 507.834 137.935C507.721 138.226 507.609 138.512 507.486 138.803C502.152 151.474 493.479 179.152 532.495 179.152C532.883 179.152 533.266 179.142 533.654 179.127C496.822 178.238 505.291 151.264 510.539 138.803V138.808Z" fill="#FFF7EC"/>
<path d="M569.786 136.809C567.423 130.765 562.246 125.353 560.353 118.492C560.256 118.14 560.169 117.783 560.092 117.42C560.077 117.359 560.067 117.303 560.051 117.242C559.975 116.874 559.903 116.501 559.847 116.124C559.847 116.119 559.847 116.108 559.847 116.103C559.796 115.751 559.755 115.394 559.725 115.031C559.714 114.939 559.709 114.847 559.704 114.756C559.674 114.383 559.653 114.005 559.648 113.617C551.552 117.916 541.02 120.509 529.499 120.509C522.081 120.509 515.072 119.432 508.859 117.517C508.911 117.752 508.962 117.997 509.013 118.242C509.028 118.314 509.043 118.385 509.059 118.462C509.099 118.661 509.135 118.86 509.176 119.064C509.186 119.13 509.202 119.197 509.212 119.268C509.258 119.529 509.304 119.799 509.35 120.07C509.36 120.136 509.37 120.208 509.38 120.274C509.411 120.458 509.436 120.647 509.462 120.841C516.966 124.577 528.942 126.134 542.256 124.593C543.751 124.332 545.217 124.031 546.646 123.684C550.117 122.842 553.696 124.583 555.135 127.86C557.484 133.215 561.399 137.809 563.364 142.838C566.422 152.154 563.145 162.854 555.993 171.17C567.407 162.583 573.661 148.591 569.797 136.814L569.786 136.809Z" fill="#D6823C"/>
<path d="M559.643 113.611C551.547 117.91 541.015 120.503 529.494 120.503C522.076 120.503 515.067 119.426 508.855 117.511C509.968 122.514 510.861 130.794 507.487 138.809C502.152 151.479 493.479 179.158 532.495 179.158C557.06 179.158 575.841 155.262 569.787 136.808C566.892 129.406 559.771 122.943 559.643 113.611V113.611Z" stroke="#592832" stroke-width="2.75664" stroke-linecap="round" stroke-linejoin="round"/>
<path d="M566.901 131.095C568.142 132.688 573.42 139.375 575.437 142.734C580.771 151.627 581.808 164.374 574.697 174.303C567.58 184.232 553.205 184.528 546.757 176.375C537.211 164.312 540.831 153.444 543.439 148.503C554.849 146.951 560.617 138.665 566.901 131.09V131.095Z" fill="#EAAC71"/>
<path d="M546.988 171.828C541.796 161.807 543.445 153.762 546.069 148.473C546.62 147.365 545.742 146.099 544.507 146.16H544.476C541.459 150.862 536.941 161.393 545.436 174.212C549.652 180.572 558.499 182.747 566.044 179.786C558.458 181.491 550.372 178.362 546.988 171.828Z" fill="#F5D7BB"/>
<path d="M575.436 142.735C573.42 139.376 568.142 132.688 566.901 131.096C564.951 133.444 563.052 135.864 561.02 138.125C561.745 139.156 562.393 140.116 562.858 140.892C568.193 149.785 569.229 162.532 562.118 172.461C559.218 176.509 555.104 178.959 550.816 179.883C558.044 184.12 568.831 182.487 574.696 174.303C581.812 164.374 580.771 151.628 575.436 142.735Z" fill="#D6823C"/>
<path d="M545.205 145.701C545.205 145.701 533.739 159.933 546.757 176.381C553.209 184.534 567.585 184.237 574.696 174.308C581.812 164.379 580.771 151.633 575.436 142.74C570.102 133.847 567.416 132.78 564.818 127.844" stroke="#592832" stroke-width="2.75664" stroke-linecap="round" stroke-linejoin="round"/>
<path d="M569.658 187.94H534.383C534.383 187.94 535.266 178.751 546.752 176.377C558.243 174.003 570.27 180.824 570.924 183.79C571.577 186.756 569.652 187.94 569.652 187.94H569.658Z" fill="#AE6745"/>
<path d="M569.658 187.94H534.383C534.383 187.94 535.266 178.751 546.752 176.377C558.243 174.003 570.27 180.824 570.924 183.79C571.577 186.756 569.652 187.94 569.652 187.94H569.658Z" fill="#AE6745"/>
<path d="M548.329 178.185C557.497 176.291 566.998 180.247 570.801 183.433C569.346 180.319 557.809 174.101 546.757 176.383C535.266 178.757 534.388 187.945 534.388 187.945H536.378C537.282 185.143 540.054 179.9 548.329 178.19V178.185Z" fill="#C18B71"/>
<path d="M570.929 183.788C570.709 182.798 569.218 181.379 566.911 180.016C566.528 180.056 566.145 180.102 565.762 180.153C561.398 180.761 558.57 182.027 556.732 183.364C555.114 184.544 553.169 185.177 551.168 185.177H535.148C534.495 186.775 534.378 187.933 534.378 187.933H569.652C569.652 187.933 571.577 186.749 570.923 183.783L570.929 183.788Z" fill="#924921"/>
<path d="M569.658 187.94H534.383C534.383 187.94 535.266 178.751 546.752 176.377C558.243 174.003 570.27 180.824 570.924 183.79C571.577 186.756 569.652 187.94 569.652 187.94H569.658Z" stroke="#592832" stroke-width="2.75664" stroke-linecap="round" stroke-linejoin="round"/>
<path d="M547.094 187.941C547.094 187.941 548.717 182.846 552.725 181.555" stroke="#592832" stroke-width="2.75664" stroke-linecap="round" stroke-linejoin="round"/>
<path d="M539.304 187.941C539.304 187.941 540.927 182.846 544.935 181.555" stroke="#592832" stroke-width="2.75664" stroke-linecap="round" stroke-linejoin="round"/>
<path d="M521.642 178.272C521.438 178.236 521.233 178.195 521.034 178.154C520.799 178.108 520.565 178.057 520.33 178.006C520.136 177.965 519.937 177.919 519.748 177.879C519.523 177.828 519.299 177.771 519.079 177.715C518.89 177.669 518.701 177.623 518.518 177.572C518.303 177.516 518.089 177.455 517.879 177.394C517.701 177.343 517.517 177.292 517.343 177.235C517.134 177.174 516.935 177.108 516.731 177.041C516.562 176.985 516.389 176.929 516.22 176.873C516.021 176.801 515.827 176.73 515.633 176.659C515.475 176.597 515.312 176.541 515.153 176.48C514.96 176.403 514.771 176.322 514.582 176.245C514.434 176.184 514.286 176.123 514.143 176.061C513.939 175.974 513.745 175.877 513.545 175.786C513.423 175.729 513.3 175.673 513.178 175.617C512.872 175.469 512.576 175.316 512.29 175.158C512.157 175.086 512.029 175.01 511.897 174.933C511.738 174.841 511.58 174.754 511.427 174.663C511.289 174.581 511.156 174.494 511.024 174.407C510.886 174.32 510.748 174.234 510.62 174.147C510.488 174.055 510.355 173.963 510.227 173.871C510.105 173.784 509.977 173.698 509.86 173.611C509.732 173.514 509.604 173.417 509.482 173.32C509.37 173.233 509.252 173.141 509.14 173.049C509.017 172.947 508.9 172.845 508.777 172.743C508.67 172.651 508.568 172.564 508.466 172.467C508.349 172.36 508.236 172.253 508.124 172.146C508.027 172.054 507.93 171.962 507.838 171.87C507.726 171.758 507.619 171.646 507.511 171.533C507.425 171.441 507.338 171.344 507.251 171.252C507.149 171.135 507.042 171.023 506.945 170.905C506.863 170.813 506.787 170.716 506.71 170.625C506.613 170.502 506.516 170.38 506.419 170.257C506.348 170.165 506.276 170.068 506.21 169.976C506.118 169.849 506.026 169.721 505.934 169.593C505.873 169.501 505.812 169.41 505.75 169.313C505.663 169.18 505.572 169.047 505.49 168.909C505.434 168.823 505.383 168.731 505.332 168.639C505.245 168.496 505.163 168.358 505.082 168.21C505.036 168.128 504.995 168.052 504.954 167.97C504.872 167.812 504.785 167.659 504.709 167.5C504.683 167.449 504.663 167.398 504.637 167.347C504.326 166.699 504.055 166.04 503.826 165.361C501.181 157.531 503.877 147.974 506.506 141.205C495.586 147.464 491.033 171.916 511.708 178.251C516.174 179.415 519.636 179.257 522.321 178.374C522.091 178.338 521.861 178.297 521.637 178.256L521.642 178.272Z" fill="#EAAC71"/>
<path d="M505.326 144.488C505.694 143.39 506.077 142.344 506.46 141.348C506.312 141.307 506.158 141.262 506.01 141.221C495.091 147.479 490.538 171.932 511.212 178.267C514.117 179.022 516.598 179.221 518.717 179.028C517.389 178.915 515.955 178.675 514.398 178.267C496.398 172.748 497.526 153.498 505.326 144.483V144.488Z" fill="#F5D7BB"/>
<path d="M521.642 178.272C521.438 178.236 521.233 178.195 521.034 178.154C520.799 178.108 520.565 178.057 520.33 178.006C520.136 177.965 519.937 177.919 519.748 177.879C519.523 177.828 519.299 177.771 519.079 177.715C518.89 177.669 518.701 177.623 518.518 177.572C518.303 177.516 518.089 177.455 517.879 177.394C517.701 177.343 517.517 177.292 517.343 177.235C517.134 177.174 516.935 177.108 516.731 177.041C516.562 176.985 516.389 176.929 516.22 176.873C516.021 176.801 515.827 176.73 515.633 176.659C515.475 176.597 515.312 176.541 515.153 176.48C514.96 176.403 514.771 176.322 514.582 176.245C514.434 176.184 514.286 176.123 514.143 176.061C513.939 175.974 513.745 175.877 513.545 175.786C513.423 175.729 513.3 175.673 513.178 175.617C512.872 175.469 512.576 175.316 512.29 175.158C512.157 175.086 512.029 175.01 511.897 174.933C511.738 174.841 511.58 174.754 511.427 174.663C511.289 174.581 511.156 174.494 511.024 174.407C510.886 174.32 510.748 174.234 510.62 174.147C510.488 174.055 510.355 173.963 510.227 173.871C510.105 173.784 509.977 173.698 509.86 173.611C509.732 173.514 509.604 173.417 509.482 173.32C509.37 173.233 509.252 173.141 509.14 173.049C509.017 172.947 508.9 172.845 508.777 172.743C508.67 172.651 508.568 172.564 508.466 172.467C508.349 172.36 508.236 172.253 508.124 172.146C508.027 172.054 507.93 171.962 507.838 171.87C507.726 171.758 507.619 171.646 507.511 171.533C507.425 171.441 507.338 171.344 507.251 171.252C507.149 171.135 507.042 171.023 506.945 170.905C506.863 170.813 506.787 170.716 506.71 170.625C506.613 170.502 506.516 170.38 506.419 170.257C506.348 170.165 506.276 170.068 506.21 169.976C506.118 169.849 506.026 169.721 505.934 169.593C505.873 169.501 505.812 169.41 505.75 169.313C505.663 169.18 505.572 169.047 505.49 168.909C505.434 168.823 505.383 168.731 505.332 168.639C505.245 168.496 505.163 168.358 505.082 168.21C505.036 168.128 504.995 168.052 504.954 167.97C504.872 167.812 504.785 167.659 504.709 167.5C504.683 167.449 504.663 167.398 504.637 167.347C504.326 166.699 504.055 166.04 503.826 165.361C501.181 157.531 503.877 147.974 506.506 141.205C495.586 147.464 491.033 171.916 511.708 178.251C516.174 179.415 519.636 179.257 522.321 178.374C522.091 178.338 521.861 178.297 521.637 178.256L521.642 178.272Z" stroke="#592832" stroke-width="2.75664" stroke-linecap="round" stroke-linejoin="round"/>
<path d="M528.11 187.94H492.836C492.836 187.94 493.719 178.751 505.205 176.377C516.696 174.003 528.723 180.824 529.376 183.79C530.03 186.756 528.105 187.94 528.105 187.94H528.11Z" fill="#AE6745"/>
<path d="M528.11 187.94H492.836C492.836 187.94 493.719 178.751 505.205 176.377C516.696 174.003 528.723 180.824 529.376 183.79C530.03 186.756 528.105 187.94 528.105 187.94H528.11Z" fill="#AE6745"/>
<path d="M506.777 178.185C515.945 176.291 525.445 180.247 529.248 183.433C527.793 180.319 516.256 174.101 505.204 176.383C493.713 178.757 492.835 187.945 492.835 187.945H494.826C495.73 185.143 498.502 179.9 506.777 178.19V178.185Z" fill="#C18B71"/>
<path d="M529.381 183.788C529.162 182.798 527.671 181.379 525.364 180.016C524.981 180.056 524.598 180.102 524.215 180.153C519.851 180.761 517.023 182.027 515.185 183.364C513.567 184.544 511.622 185.177 509.62 185.177H493.601C492.948 186.775 492.83 187.933 492.83 187.933H528.105C528.105 187.933 530.03 186.749 529.376 183.783L529.381 183.788Z" fill="#924921"/>
<path d="M505.547 187.941C505.547 187.941 507.17 182.846 511.177 181.555" stroke="#592832" stroke-width="2.75664" stroke-linecap="round" stroke-linejoin="round"/>
<path d="M497.757 187.941C497.757 187.941 499.38 182.846 503.388 181.555" stroke="#592832" stroke-width="2.75664" stroke-linecap="round" stroke-linejoin="round"/>
<path d="M521.954 178.329C521.852 178.308 521.745 178.293 521.642 178.273C521.438 178.237 521.234 178.196 521.035 178.155C520.8 178.109 520.565 178.058 520.331 178.007C520.137 177.966 519.937 177.92 519.749 177.88C519.524 177.829 519.299 177.772 519.08 177.716C518.891 177.67 518.702 177.624 518.518 177.573C518.304 177.517 518.089 177.456 517.88 177.395C517.701 177.344 517.518 177.293 517.344 177.236C517.135 177.175 516.936 177.109 516.732 177.042C516.563 176.986 516.39 176.93 516.221 176.874C516.022 176.802 515.828 176.731 515.634 176.66C515.476 176.598 515.312 176.542 515.154 176.481C514.96 176.404 514.771 176.323 514.582 176.246C514.572 176.246 514.567 176.241 514.557 176.236C511.565 175.771 508.365 175.725 505.205 176.374C493.714 178.747 492.836 187.936 492.836 187.936H528.11C528.11 187.936 530.035 186.752 529.381 183.786C529.07 182.372 526.155 180.075 521.954 178.324V178.329Z" stroke="#592832" stroke-width="2.75664" stroke-linecap="round" stroke-linejoin="round"/>
<path d="M520.175 43.1896C509.985 47.0183 496.56 34.6287 487.11 43.1896C480.372 49.29 487.902 60.2247 496.054 62.4147L520.175 43.1896Z" fill="#EAAC71"/>
<path d="M485.865 46.5231C494.16 39.0138 505.514 47.6309 515.055 47.2685L520.175 43.1896C509.985 47.0183 496.56 34.6287 487.11 43.1896C485.553 44.5986 484.767 46.2628 484.563 48.0189C484.92 47.4982 485.344 46.9928 485.865 46.5231Z" fill="#F5D7BB"/>
<path d="M520.175 43.1896C509.985 47.0183 496.56 34.6287 487.11 43.1896C480.372 49.29 487.902 60.2247 496.054 62.4147L520.175 43.1896Z" stroke="#592832" stroke-width="2.75664" stroke-linecap="round" stroke-linejoin="round"/>
<path d="M487.008 55.8714C489.198 58.9446 492.567 61.4766 496.054 62.4159L505.722 54.7126C493.573 38.6884 483.746 50.8891 487.013 55.8766L487.008 55.8714Z" fill="#EE857B"/>
<path d="M491.036 54.0365C489.713 52.015 490.54 48.8091 492.797 46.7773C487.753 47.4001 485.068 52.9083 487.008 55.8743C489.198 58.9474 492.567 61.4794 496.054 62.4187L498.856 60.1828C495.819 59.0393 492.97 56.7472 491.036 54.0365Z" fill="#FFBAB0"/>
<path d="M487.008 55.8714C489.198 58.9446 492.567 61.4766 496.054 62.4159L505.722 54.7126C493.573 38.6884 483.746 50.8891 487.013 55.8766L487.008 55.8714Z" stroke="#592832" stroke-width="2.75664" stroke-linecap="round" stroke-linejoin="round"/>
<path d="M574.603 43.19C567.42 38.5343 558.425 44.4203 552.182 45.9568C545.658 41.827 538.236 39.3613 530.364 39.3613C504.349 39.3613 483.256 68.4898 483.256 91.4618C483.256 107.501 504.344 120.509 530.364 120.509C556.384 120.509 577.472 107.506 577.472 91.4618C577.472 83.0745 575.139 74.5034 571.07 66.8001C582.96 61.052 584.266 49.4537 574.603 43.19Z" fill="#EAAC71"/>
<path d="M575.083 43.5215C576.962 49.2339 574.011 55.9008 566.175 60.1685C570.678 67.7799 573.465 76.3561 573.873 84.8609C574.659 101.125 553.908 115.342 527.531 116.618C514.789 117.236 503.063 114.714 494.257 110.115C502.9 116.47 515.866 120.508 530.364 120.508C556.379 120.508 577.472 107.506 577.472 91.4615C577.472 83.0742 575.139 74.503 571.071 66.7998C582.756 61.1487 584.211 49.8515 575.083 43.5215Z" fill="#D6823C"/>
<path d="M574.603 43.1887C567.42 38.533 558.426 44.419 552.182 45.9555C551.085 45.2613 549.962 44.6181 548.818 44.0208L548.369 44.8784C553.351 49.1206 556.879 48.6101 562.413 46.0628C568.809 43.1172 579.636 45.1337 581.005 54.1897C581.188 50.116 579.07 46.0832 574.603 43.1887Z" fill="#F5D7BB"/>
<path d="M487.182 91.4618C487.182 69.0667 507.234 40.8162 532.35 39.4226C531.691 39.3869 531.028 39.3613 530.364 39.3613C504.349 39.3613 483.256 68.4898 483.256 91.4618C483.256 107.501 504.344 120.509 530.364 120.509C531.022 120.509 531.676 120.498 532.324 120.483C507.218 119.85 487.182 107.103 487.182 91.4669V91.4618Z" fill="#F5D7BB"/>
<path d="M523.115 51.262C518.714 46.7646 514.452 45.182 510.95 44.8809C507.912 46.6574 505.043 48.8014 502.389 51.2262C504.467 56.4945 513.64 59.6442 523.11 51.262H523.115Z" fill="#D6823C"/>
<path d="M574.603 43.19C567.42 38.5343 558.425 44.4203 552.182 45.9568C545.658 41.827 538.236 39.3613 530.364 39.3613C504.349 39.3613 483.256 68.4898 483.256 91.4618C483.256 107.501 504.344 120.509 530.364 120.509C556.384 120.509 577.472 107.506 577.472 91.4618C577.472 83.0745 575.139 74.5034 571.07 66.8001C582.96 61.052 584.266 49.4537 574.603 43.19V43.19Z" stroke="#592832" stroke-width="2.75664" stroke-linecap="round" stroke-linejoin="round"/>
<path d="M580.964 52.588C582 56.5647 578.233 63.2878 571.208 66.7387C568.615 62.1699 565.517 57.8154 561.688 53.7723C561.688 53.7723 578.131 41.7605 580.964 52.5931V52.588Z" fill="white"/>
<path d="M580.964 52.588C582 56.5647 578.233 63.2878 571.208 66.7387C568.615 62.1699 565.517 57.8154 561.688 53.7723C561.688 53.7723 578.131 41.7605 580.964 52.5931V52.588Z" fill="#EE857B"/>
<path d="M580.964 52.5881C580.121 49.367 578.074 48.1673 575.614 48.0703C576.349 48.8156 576.91 49.857 577.222 51.2864C577.992 54.8088 574.981 60.2965 569.396 63.727C570.024 64.7225 570.631 65.723 571.208 66.7389C578.232 63.2931 582 56.5649 580.964 52.5881Z" fill="#FFBAB0"/>
<path d="M580.964 52.588C582 56.5647 578.233 63.2878 571.208 66.7387C568.615 62.1699 565.517 57.8154 561.688 53.7723C561.688 53.7723 578.131 41.7605 580.964 52.5931V52.588Z" stroke="#592832" stroke-width="2.75664" stroke-linecap="round" stroke-linejoin="round"/>
<path d="M546.164 42.7612C544.617 42.1027 542.672 41.3727 540.365 40.6989C520.354 35.8952 512.926 21.6066 509.077 29.5345C505.228 37.4624 515.718 42.4703 515.718 42.4703C515.718 42.4703 506.805 43.236 507.035 48.5604C507.27 53.895 519.266 55.355 525.382 49.5814C533.703 48.9943 540.998 47.1719 546.164 42.7612Z" fill="#EAAC71"/>
<path d="M540.905 43.823C547.75 44.6602 549.282 45.2524 550.334 45.6403C551.584 44.9308 545.086 43.6801 546.168 42.7612C544.621 42.1027 542.676 41.3727 540.369 40.6988C520.358 35.8951 512.93 21.6116 509.081 29.5344C508.637 30.438 508.392 31.3058 508.285 32.1328C512.256 25.9253 519.822 40.0505 540.91 43.823H540.905Z" fill="#F5D7BB"/>
<path d="M515.264 42.5266C514.161 42.6746 511.277 43.1749 509.235 44.5839C512.691 46.0592 518.694 46.7075 521.87 43.7467C519.251 43.6395 517.045 43.2362 515.264 42.5215V42.5266Z" fill="#D6823C"/>
<path d="M550.432 44.9009C550.432 44.9009 546.812 42.5833 540.365 40.7047C520.354 35.901 512.926 21.6124 509.077 29.5403C505.228 37.4682 515.718 42.4761 515.718 42.4761C515.718 42.4761 506.805 43.2418 507.035 48.5662C507.27 53.9009 519.266 55.3609 525.382 49.5872" stroke="#592832" stroke-width="2.75664" stroke-linecap="round" stroke-linejoin="round"/>
<path d="M522.441 43.1237C522.441 43.1237 515.457 43.8844 512.323 40.2344" stroke="#592832" stroke-width="2.75664" stroke-linecap="round" stroke-linejoin="round"/>
<path d="M519.242 100.558C522.49 100.524 525.097 98.0078 525.064 94.9377C525.032 91.8676 522.373 89.4064 519.126 89.4404C515.878 89.4744 513.271 91.9908 513.303 95.0609C513.336 98.131 515.994 100.592 519.242 100.558Z" fill="#FFE5C0"/>
<path d="M509.984 99.7296C512.42 99.724 514.39 97.5117 514.383 94.7883C514.377 92.0648 512.398 89.8614 509.962 89.8669C507.526 89.8725 505.556 92.0848 505.562 94.8083C505.568 97.5318 507.548 99.7351 509.984 99.7296Z" fill="#FFE5C0"/>
<path d="M513.65 97.1751C510.081 97.3384 507.82 90.7991 509.877 89.9159C511.935 89.0328 517.361 89.2829 517.642 91.2023C517.923 93.1167 516.606 97.0372 513.645 97.1751H513.65Z" fill="#DBAB7A"/>
<path d="M513.986 95.0344C510.009 95.208 507.569 90.0214 509.866 89.2966C512.169 88.5717 518.203 88.7044 518.499 90.2307C518.795 91.752 517.279 94.8915 513.986 95.0344Z" fill="#592832"/>
<path d="M524.197 98.5843C523.089 99.9524 521.46 100.667 519.704 100.56C516.407 100.356 513.533 98.0125 513.517 94.582" stroke="#592832" stroke-width="2.75664" stroke-linecap="round" stroke-linejoin="round"/>
<path d="M513.926 97.166C513.538 98.7434 512.414 99.5092 511.031 99.9329C509.76 100.321 508.111 100.224 507.228 99.0752" stroke="#592832" stroke-width="2.75664" stroke-linecap="round" stroke-linejoin="round"/>
<path d="M510.092 99.5444C510.092 99.5444 510.158 99.7588 510.27 100.106C510.801 101.755 512.374 106.472 513.042 106.752C513.859 107.089 518.847 107.288 519.388 106.717C519.929 106.145 520.669 100.494 520.669 100.494C520.669 100.494 517.07 101.244 514.548 97.2676C514.548 97.2676 512.164 100.31 510.087 99.5393L510.092 99.5444Z" fill="white"/>
<path d="M520.669 100.498C520.669 100.498 517.07 101.248 514.548 97.2715C514.548 97.2715 512.164 100.314 510.087 99.5432C510.087 99.5432 510.153 99.7576 510.265 100.105C510.449 100.682 510.766 101.641 511.123 102.647C512.292 102.509 513.783 102.101 514.798 100.962C515.927 102.775 518.433 103.305 520.235 103.311C520.48 101.856 520.659 100.488 520.659 100.488L520.669 100.498Z" fill="#C6AEA7"/>
<path d="M510.29 100.229C510.398 100.249 510.413 100.53 510.449 100.632C510.515 100.847 510.566 101.046 510.643 101.25C510.791 101.628 510.903 102.021 511.041 102.404C511.327 103.215 511.623 104.027 511.949 104.823C512.133 105.268 512.322 105.712 512.557 106.13C512.669 106.329 512.817 106.661 513.042 106.753C513.859 107.09 518.846 107.289 519.387 106.717C519.928 106.146 520.612 100.729 520.612 100.729C520.612 100.729 516.299 100.484 514.012 96.8496C514.032 96.8802 513.981 97.5439 513.966 97.5694C513.752 97.9063 513.894 98.2688 513.624 98.5546C512.96 99.2642 511.296 100.428 510.296 100.224L510.29 100.229Z" stroke="#592832" stroke-width="2.75664" stroke-linecap="round" stroke-linejoin="round"/>
<path d="M515.727 106.486C515.727 106.486 514.574 100.804 514.553 97.2715" stroke="#592832" stroke-width="1.17412" stroke-linecap="round" stroke-linejoin="round"/>
<path d="M539.537 72.9219C539.537 72.9219 534.35 73.4222 530.128 77.3887" stroke="#592832" stroke-width="2.75664" stroke-linecap="round" stroke-linejoin="round"/>
<path d="M503.22 77.2506C500.653 73.6313 496.436 73.1055 496.436 73.1055" stroke="#592832" stroke-width="2.75664" stroke-linecap="round" stroke-linejoin="round"/>
<path d="M495.864 93.3317C499.476 93.3317 502.404 89.8257 502.404 85.5008C502.404 81.1759 499.476 77.6699 495.864 77.6699C492.253 77.6699 489.325 81.1759 489.325 85.5008C489.325 89.8257 492.253 93.3317 495.864 93.3317Z" fill="#592832"/>
<path d="M497.483 86.3483C498.704 86.3483 499.694 85.2695 499.694 83.9388C499.694 82.6081 498.704 81.5293 497.483 81.5293C496.262 81.5293 495.273 82.6081 495.273 83.9388C495.273 85.2695 496.262 86.3483 497.483 86.3483Z" fill="white"/>
<path d="M541.992 96.5269C547.259 96.5269 551.528 92.2576 551.528 86.991C551.528 81.7245 547.259 77.4551 541.992 77.4551C536.726 77.4551 532.456 81.7245 532.456 86.991C532.456 92.2576 536.726 96.5269 541.992 96.5269Z" fill="#592832"/>
<path d="M538.996 87.501C540.49 87.501 541.701 86.2897 541.701 84.7954C541.701 83.3012 540.49 82.0898 538.996 82.0898C537.502 82.0898 536.29 83.3012 536.29 84.7954C536.29 86.2897 537.502 87.501 538.996 87.501Z" fill="white"/>
<path d="M539.977 129.005C533.407 129.98 529.517 129.332 524.168 129.005C518.818 128.678 507.873 131.032 507.061 134.033C506.249 137.035 509.818 137.193 509.818 137.193C509.818 137.193 511.196 146.03 519.548 146.03C524.494 146.03 527.006 144.248 527.006 144.248C527.006 144.248 538.681 148.301 545.332 141.976C546.022 137.045 544.847 132.573 539.982 129.005H539.977Z" fill="#EAAC71"/>
<path d="M533.535 141.548C531.616 140.491 528.058 139.143 522.871 141.548C518.078 143.768 513.376 141.068 514.525 139.715C513.494 140.491 512.498 141.267 511.814 142.012C513.238 144.08 515.622 146.03 519.548 146.03C524.495 146.03 527.006 144.248 527.006 144.248C527.006 144.248 538.681 148.301 545.333 141.976C545.369 141.711 545.399 141.445 545.425 141.18C541.647 143.482 535.143 142.426 533.535 141.548Z" fill="#D6823C"/>
<path d="M514.524 139.714C514.657 139.612 514.795 139.51 514.928 139.408C514.749 139.5 514.616 139.602 514.524 139.714Z" fill="#D6823C"/>
<path d="M508.991 136.729C509.803 133.727 520.748 131.379 526.098 131.7C531.33 132.017 535.256 132.64 542.587 131.399C541.867 130.562 541.014 129.766 539.978 129.005C533.408 129.98 529.518 129.332 524.168 129.005C518.818 128.678 507.873 131.032 507.062 134.033C506.52 136.039 507.935 136.775 508.93 137.04C508.95 136.938 508.961 136.836 508.991 136.729Z" fill="#F5D7BB"/>
<path d="M520.982 129.068C515.341 129.512 507.73 131.549 507.061 134.035C506.249 137.037 509.817 137.195 509.817 137.195C509.817 137.195 511.196 146.032 519.547 146.032C524.07 146.032 526.551 144.546 526.944 144.291C527.302 138.318 524.765 132.417 520.982 129.068Z" fill="#AE6745"/>
<path d="M526.761 140.339C525.581 140.518 524.29 140.885 522.866 141.544C518.833 143.412 514.861 141.794 514.391 140.431L512.145 142.468C512.181 142.514 512.222 142.565 512.258 142.611C512.309 142.677 512.36 142.738 512.411 142.805C512.467 142.871 512.523 142.932 512.579 142.999C512.635 143.065 512.691 143.126 512.748 143.193C512.804 143.254 512.865 143.315 512.926 143.376C512.988 143.438 513.049 143.504 513.115 143.565C513.176 143.627 513.243 143.683 513.304 143.739C513.37 143.8 513.437 143.861 513.508 143.923C513.575 143.979 513.641 144.035 513.707 144.086C513.779 144.147 513.855 144.203 513.932 144.26C514.003 144.311 514.075 144.362 514.146 144.413C514.223 144.469 514.305 144.525 514.386 144.576C514.458 144.627 514.534 144.673 514.611 144.719C514.698 144.77 514.785 144.821 514.871 144.872C514.948 144.918 515.03 144.959 515.106 145C515.198 145.046 515.29 145.097 515.387 145.138C515.469 145.179 515.55 145.214 515.637 145.255C515.734 145.296 515.836 145.337 515.938 145.378C516.025 145.413 516.112 145.444 516.199 145.48C516.306 145.515 516.418 145.551 516.525 145.587C516.612 145.612 516.704 145.643 516.796 145.669C516.913 145.699 517.031 145.73 517.153 145.755C517.245 145.776 517.332 145.801 517.429 145.822C517.556 145.847 517.689 145.868 517.822 145.888C517.914 145.903 518.001 145.919 518.092 145.934C518.246 145.954 518.399 145.97 518.557 145.98C518.639 145.985 518.715 145.995 518.797 146C519.037 146.016 519.282 146.026 519.537 146.026C519.833 146.026 520.124 146.021 520.4 146.006C520.492 146.006 520.573 145.995 520.66 145.99C520.849 145.98 521.033 145.97 521.212 145.954C521.309 145.944 521.4 145.934 521.492 145.924C521.656 145.909 521.819 145.888 521.977 145.868C522.069 145.857 522.156 145.842 522.243 145.832C522.396 145.812 522.549 145.786 522.692 145.76C522.774 145.745 522.85 145.73 522.927 145.715C523.075 145.689 523.218 145.658 523.356 145.628C523.427 145.612 523.493 145.597 523.56 145.582C523.703 145.551 523.841 145.515 523.973 145.48C524.029 145.464 524.086 145.449 524.142 145.434C524.28 145.398 524.412 145.357 524.54 145.316C524.581 145.301 524.627 145.291 524.668 145.276C524.805 145.23 524.938 145.189 525.061 145.143C525.086 145.133 525.112 145.122 525.137 145.117C525.28 145.066 525.418 145.015 525.546 144.964C525.546 144.964 525.551 144.964 525.556 144.964C525.959 144.801 526.281 144.648 526.516 144.52C526.526 144.515 526.536 144.51 526.551 144.5C526.613 144.469 526.664 144.438 526.71 144.413C526.735 144.397 526.755 144.387 526.776 144.377C526.801 144.362 526.827 144.346 526.847 144.331C526.873 144.316 526.903 144.295 526.919 144.285C526.919 144.285 526.919 144.285 526.924 144.285C527.006 142.953 526.934 141.631 526.745 140.334L526.761 140.339Z" fill="#924921"/>
<path d="M506.954 134.617C506.928 134.908 506.949 135.168 507.005 135.398C507.01 135.423 507.02 135.454 507.025 135.479C507.056 135.592 507.097 135.694 507.142 135.791C507.194 135.893 507.25 135.98 507.316 136.066C507.331 136.087 507.347 136.107 507.367 136.128C507.428 136.204 507.49 136.276 507.561 136.337C507.566 136.342 507.571 136.347 507.576 136.352C507.648 136.419 507.724 136.48 507.806 136.536C507.832 136.556 507.862 136.577 507.888 136.592C507.949 136.633 508.015 136.669 508.077 136.705C508.118 136.725 508.158 136.745 508.199 136.766C508.255 136.796 508.317 136.822 508.373 136.847C508.419 136.868 508.465 136.883 508.506 136.904C508.541 136.919 508.572 136.929 508.608 136.939C508.715 136.975 508.822 137.011 508.924 137.036C508.945 136.934 508.955 136.832 508.985 136.725C509.675 134.178 517.669 132.1 523.345 131.727C522.631 130.727 521.839 129.828 520.982 129.062C519.925 129.144 518.802 129.287 517.669 129.471C517.664 129.471 517.653 129.471 517.648 129.471C516.735 129.624 515.811 129.808 514.912 130.017C514.866 130.027 514.825 130.038 514.779 130.048C514.636 130.083 514.488 130.119 514.345 130.155C514.289 130.17 514.233 130.186 514.177 130.196C514.039 130.232 513.901 130.267 513.764 130.303C513.707 130.318 513.651 130.334 513.6 130.349C513.171 130.466 512.753 130.589 512.349 130.716C512.268 130.742 512.191 130.768 512.11 130.793C512.013 130.824 511.916 130.859 511.819 130.89C511.732 130.921 511.645 130.951 511.558 130.982C511.466 131.013 511.374 131.048 511.288 131.079C511.196 131.11 511.109 131.145 511.022 131.181C510.941 131.212 510.859 131.242 510.777 131.278C510.675 131.319 510.573 131.36 510.471 131.401C510.41 131.426 510.343 131.452 510.282 131.477C510.129 131.543 509.976 131.61 509.833 131.681C509.782 131.707 509.731 131.732 509.675 131.758C509.578 131.804 509.481 131.855 509.389 131.901C509.332 131.931 509.276 131.962 509.22 131.988C509.133 132.034 509.052 132.079 508.97 132.125C508.919 132.156 508.863 132.187 508.812 132.217C508.73 132.268 508.648 132.314 508.572 132.365C508.531 132.391 508.485 132.422 508.444 132.447C508.347 132.513 508.255 132.575 508.169 132.641C508.148 132.656 508.133 132.667 508.112 132.682C508.01 132.758 507.913 132.84 507.827 132.922C507.801 132.947 507.775 132.973 507.75 132.993C507.689 133.049 507.633 133.106 507.576 133.167C507.551 133.197 507.525 133.228 507.495 133.259C507.449 133.315 507.403 133.366 507.367 133.422C507.347 133.453 507.321 133.483 507.301 133.514C507.265 133.57 507.229 133.631 507.199 133.688C507.183 133.713 507.168 133.744 507.153 133.769C507.112 133.856 507.081 133.943 507.056 134.03C507.01 134.198 506.984 134.351 506.964 134.504C506.964 134.54 506.954 134.576 506.954 134.612V134.617Z" fill="#C18B71"/>
<path d="M539.977 129.005C533.407 129.98 529.517 129.332 524.168 129.005C518.818 128.678 507.873 131.032 507.061 134.033C506.249 137.035 509.818 137.193 509.818 137.193C509.818 137.193 511.196 146.03 519.548 146.03C524.494 146.03 527.006 144.248 527.006 144.248C527.006 144.248 538.681 148.301 545.327 141.976" stroke="#592832" stroke-width="2.75664" stroke-linecap="round" stroke-linejoin="round"/>
<path d="M514.928 134.264C511.937 134.264 509.037 136.137 510.222 138.751" stroke="#592832" stroke-width="2.75664" stroke-linecap="round" stroke-linejoin="round"/>
<path d="M516.398 139.195C513.284 139.041 512.115 142.324 513.534 143.906" stroke="#592832" stroke-width="2.75664" stroke-linecap="round" stroke-linejoin="round"/>
<path d="M509.385 120.359C504.97 120.144 499.686 119.802 496.792 119.328C491.207 118.409 481.4 111.517 477.796 115.239C475.239 118.184 480.982 122.462 480.982 122.462C480.982 122.462 478.067 126 480.042 129.92C482.018 133.841 485.648 133.437 485.648 133.437C485.648 133.437 488.21 137.169 493.182 134.305C495.944 134.979 502.672 136.592 507.869 137.833C510.258 131.503 510.11 125.106 509.385 120.359Z" fill="#EAAC71"/>
<path d="M493.182 134.305C495.943 134.979 502.672 136.592 507.868 137.833C509.145 134.448 509.696 131.048 509.818 127.888C508.302 134.086 495.157 130.017 495.157 130.017C495.157 130.017 493.381 131.13 489.537 130.017C485.693 128.904 484.83 125.172 479.924 121.568C480.521 122.125 480.981 122.462 480.981 122.462C480.981 122.462 478.066 125.999 480.042 129.92C482.017 133.841 485.647 133.437 485.647 133.437C485.647 133.437 488.209 137.169 493.182 134.305Z" fill="#D6823C"/>
<path d="M477.796 118.224C481.405 114.503 491.206 121.394 496.791 122.313C499.686 122.788 504.969 123.13 509.385 123.344C509.594 124.728 509.757 126.259 509.819 127.883C509.931 125.131 509.722 122.563 509.385 120.353C504.969 120.138 499.686 119.796 496.791 119.322C491.206 118.403 481.4 111.511 477.796 115.233C476.908 116.259 477.02 117.443 477.551 118.551C477.622 118.439 477.704 118.331 477.796 118.219V118.224Z" fill="#F5D7BB"/>
<path d="M494.765 118.811C489.083 116.988 480.997 111.93 477.796 115.232C475.239 118.178 480.982 122.456 480.982 122.456C480.982 122.456 478.067 125.994 480.042 129.914C482.018 133.835 485.647 133.431 485.647 133.431C485.647 133.431 488.21 137.163 493.182 134.299C493.182 134.299 497.874 128.209 494.765 118.806V118.811Z" fill="#AE6745"/>
<path d="M489.537 130.017C485.693 128.904 484.83 125.172 479.924 121.568C479.995 121.635 480.067 121.701 480.133 121.762C480.149 121.773 480.159 121.788 480.174 121.798C480.225 121.844 480.276 121.89 480.327 121.931C480.348 121.946 480.363 121.961 480.383 121.977C480.424 122.012 480.465 122.043 480.501 122.079C480.521 122.094 480.537 122.109 480.557 122.125C480.593 122.15 480.623 122.181 480.654 122.206C480.669 122.222 480.69 122.232 480.705 122.247C480.736 122.273 480.761 122.293 480.787 122.314C480.797 122.324 480.812 122.334 480.822 122.344C480.848 122.365 480.868 122.38 480.889 122.395C480.894 122.395 480.904 122.406 480.909 122.411C480.93 122.426 480.94 122.436 480.955 122.446C480.955 122.446 480.965 122.451 480.971 122.457C480.981 122.467 480.991 122.472 480.991 122.472C480.991 122.472 478.076 126.01 480.052 129.93C482.027 133.851 485.657 133.447 485.657 133.447C485.657 133.447 488.219 137.179 493.192 134.315C493.192 134.315 494.381 132.763 495.167 130.027C495.167 130.027 493.391 131.14 489.547 130.027L489.537 130.017Z" fill="#924921"/>
<path d="M477.475 115.687C477.419 115.784 477.373 115.876 477.332 115.973C477.322 115.999 477.306 116.029 477.296 116.055C477.25 116.177 477.215 116.3 477.189 116.428C477.189 116.448 477.184 116.474 477.179 116.499C477.158 116.606 477.148 116.708 477.143 116.816C477.143 116.846 477.143 116.877 477.143 116.907C477.143 117.168 477.174 117.428 477.235 117.683C477.24 117.709 477.245 117.729 477.255 117.755C477.286 117.872 477.322 117.985 477.363 118.102C477.368 118.117 477.373 118.138 477.383 118.153C477.434 118.286 477.49 118.424 477.551 118.556C477.623 118.444 477.705 118.337 477.796 118.225C481.15 114.758 489.875 120.486 495.567 122.038C495.398 121.012 495.138 119.935 494.765 118.806C491.886 117.883 488.389 116.132 485.224 115.054C485.214 115.054 485.209 115.049 485.199 115.044C484.999 114.978 484.8 114.911 484.606 114.85C484.571 114.84 484.53 114.83 484.494 114.814C484.326 114.763 484.157 114.712 483.994 114.666C483.943 114.651 483.892 114.636 483.846 114.626C483.693 114.585 483.539 114.544 483.391 114.508C483.335 114.493 483.284 114.483 483.228 114.467C483.08 114.432 482.932 114.401 482.789 114.37C482.738 114.36 482.687 114.35 482.636 114.34C482.478 114.309 482.325 114.284 482.171 114.258C482.136 114.253 482.1 114.243 482.064 114.238C481.686 114.181 481.319 114.146 480.967 114.141C480.926 114.141 480.885 114.141 480.844 114.141C480.716 114.141 480.589 114.141 480.461 114.146C480.405 114.146 480.349 114.156 480.293 114.161C480.186 114.171 480.083 114.181 479.976 114.192C479.915 114.202 479.854 114.212 479.798 114.222C479.701 114.238 479.609 114.258 479.517 114.278C479.456 114.294 479.394 114.309 479.338 114.324C479.251 114.35 479.165 114.381 479.078 114.411C479.022 114.432 478.966 114.452 478.909 114.478C478.823 114.513 478.741 114.554 478.659 114.595C478.608 114.62 478.557 114.646 478.506 114.677C478.419 114.728 478.338 114.784 478.256 114.845C478.215 114.876 478.174 114.896 478.139 114.927C478.021 115.019 477.909 115.121 477.802 115.228C477.699 115.34 477.618 115.458 477.541 115.58C477.521 115.611 477.5 115.647 477.48 115.682L477.475 115.687Z" fill="#C18B71"/>
<path d="M488.497 124.723C488.665 127.234 483.652 131.875 486.735 134.473" stroke="#592832" stroke-width="2.75664" stroke-linecap="round" stroke-linejoin="round"/>
<path d="M486.321 130.016C487.01 126.938 479.924 121.562 479.924 121.562" stroke="#592832" stroke-width="2.75664" stroke-linecap="round" stroke-linejoin="round"/>
<path d="M509.385 120.359C504.97 120.144 499.686 119.802 496.792 119.328C491.207 118.409 481.4 111.517 477.796 115.239C475.239 118.184 480.982 122.462 480.982 122.462C480.982 122.462 478.067 126 480.042 129.92C482.018 133.841 485.648 133.437 485.648 133.437C485.648 133.437 488.21 137.169 493.182 134.305C495.944 134.979 502.672 136.592 507.869 137.833C510.258 131.503 510.11 125.106 509.385 120.359V120.359Z" stroke="#592832" stroke-width="2.75664" stroke-linecap="round" stroke-linejoin="round"/>
<g opacity="0.6">
<path d="M529.294 166.178H464.671C462.42 166.178 460.444 164.692 459.816 162.533L447.319 119.412C446.38 116.181 448.81 112.949 452.174 112.949H516.797C519.048 112.949 521.024 114.435 521.652 116.594L534.148 159.715C535.088 162.946 532.658 166.178 529.294 166.178Z" fill="#99E5E5"/>
</g>
<path d="M529.294 166.178H464.671C462.42 166.178 460.444 164.692 459.816 162.533L447.319 119.412C446.38 116.181 448.81 112.949 452.174 112.949H516.797C519.048 112.949 521.024 114.435 521.652 116.594L534.148 159.715C535.088 162.947 532.658 166.178 529.294 166.178V166.178Z" stroke="#008484" stroke-width="2.75664" stroke-linecap="round" stroke-linejoin="round"/>
<path opacity="0.6" d="M443.103 113.718H480.828C483.11 113.718 484.78 111.569 484.213 109.358L478.511 86.9681C478.118 85.4213 476.724 84.334 475.126 84.334H437.401C435.119 84.334 433.45 86.4831 434.017 88.6936L439.719 111.084C440.112 112.63 441.505 113.718 443.103 113.718Z" fill="#99E5E5"/>
<path d="M443.103 113.718H480.828C483.11 113.718 484.78 111.569 484.213 109.358L478.511 86.9681C478.118 85.4213 476.724 84.334 475.126 84.334H437.401C435.119 84.334 433.45 86.4831 434.017 88.6936L439.719 111.084C440.112 112.63 441.505 113.718 443.103 113.718V113.718Z" stroke="#008484" stroke-width="2.75664" stroke-linecap="round" stroke-linejoin="round"/>
<path opacity="0.6" d="M448.504 108.024H456.748C457.912 108.024 458.775 106.942 458.515 105.804L455.283 91.6531C455.094 90.8261 454.359 90.2441 453.517 90.2441H445.273C444.109 90.2441 443.246 91.3264 443.506 92.4648L446.738 106.616C446.927 107.443 447.662 108.024 448.504 108.024Z" fill="#99E5E5"/>
<path d="M448.504 108.024H456.748C457.912 108.024 458.775 106.942 458.515 105.804L455.283 91.6531C455.094 90.8261 454.359 90.2441 453.517 90.2441H445.273C444.109 90.2441 443.246 91.3264 443.506 92.4648L446.738 106.616C446.927 107.443 447.662 108.024 448.504 108.024Z" stroke="#008484" stroke-width="1.02098" stroke-linecap="round" stroke-linejoin="round"/>
<path opacity="0.6" d="M464.717 108.024H472.962C474.126 108.024 474.988 106.942 474.728 105.804L471.497 91.6531C471.308 90.8261 470.573 90.2441 469.73 90.2441H461.486C460.322 90.2441 459.459 91.3264 459.72 92.4648L462.951 106.616C463.14 107.443 463.875 108.024 464.717 108.024Z" fill="#99E5E5"/>
<path d="M464.717 108.024H472.962C474.126 108.024 474.988 106.942 474.728 105.804L471.497 91.6531C471.308 90.8261 470.573 90.2441 469.73 90.2441H461.486C460.322 90.2441 459.459 91.3264 459.72 92.4648L462.951 106.616C463.14 107.443 463.875 108.024 464.717 108.024Z" stroke="#008484" stroke-width="1.02098" stroke-linecap="round" stroke-linejoin="round"/>
<g opacity="0.6">
<path d="M509.261 155.024H445.281C442.897 155.024 440.794 153.447 440.131 151.155L427.813 108.652C426.817 105.221 429.39 101.801 432.963 101.801H496.943C499.327 101.801 501.43 103.378 502.094 105.67L514.412 148.174C515.407 151.604 512.834 155.024 509.261 155.024Z" fill="#99E5E5"/>
</g>
<path d="M509.261 155.024H445.282C442.898 155.024 440.794 153.447 440.131 151.155L427.813 108.652C426.817 105.221 429.39 101.801 432.964 101.801H496.943C499.327 101.801 501.43 103.378 502.094 105.67L514.412 148.174C515.408 151.604 512.835 155.024 509.261 155.024V155.024Z" stroke="#008484" stroke-width="2.75664" stroke-linecap="round" stroke-linejoin="round"/>
<path d="M428.058 107.564H502.375" stroke="#008484" stroke-width="2.75664" stroke-linecap="round" stroke-linejoin="round"/>
<path opacity="0.5" d="M446.712 145.955H467.866C468.699 145.955 469.296 145.153 469.056 144.357L461.174 118.108C461.016 117.582 460.531 117.225 459.985 117.225H438.83C437.998 117.225 437.4 118.026 437.64 118.822L445.522 145.072C445.681 145.598 446.166 145.955 446.712 145.955Z" fill="#99E5E5"/>
<path d="M446.712 145.955H467.866C468.699 145.955 469.296 145.153 469.056 144.357L461.174 118.108C461.016 117.582 460.531 117.225 459.985 117.225H438.83C437.998 117.225 437.4 118.026 437.64 118.822L445.522 145.072C445.681 145.598 446.166 145.955 446.712 145.955Z" stroke="#008484" stroke-width="1.02098" stroke-linecap="round" stroke-linejoin="round"/>
<path d="M445.221 126.842H449.407" stroke="#008484" stroke-width="1.02098" stroke-linecap="round" stroke-linejoin="round"/>
<path d="M451.352 126.842H459.662" stroke="#008484" stroke-width="1.02098" stroke-linecap="round" stroke-linejoin="round"/>
<path d="M456.666 131.197H460.724" stroke="#008484" stroke-width="1.02098" stroke-linecap="round" stroke-linejoin="round"/>
<path d="M446.466 131.197H454.481" stroke="#008484" stroke-width="1.02098" stroke-linecap="round" stroke-linejoin="round"/>
<path d="M454.42 122.938H458.478" stroke="#008484" stroke-width="1.02098" stroke-linecap="round" stroke-linejoin="round"/>
<path d="M444.219 122.938H452.234" stroke="#008484" stroke-width="1.02098" stroke-linecap="round" stroke-linejoin="round"/>
<path d="M447.201 136.281H450.473" stroke="#008484" stroke-width="1.02098" stroke-linecap="round" stroke-linejoin="round"/>
<path d="M452.669 136.281H461.883" stroke="#008484" stroke-width="1.02098" stroke-linecap="round" stroke-linejoin="round"/>
<path d="M448.667 141.361H452.255" stroke="#008484" stroke-width="1.02098" stroke-linecap="round" stroke-linejoin="round"/>
<path d="M454.047 141.361H463.399" stroke="#008484" stroke-width="1.02098" stroke-linecap="round" stroke-linejoin="round"/>
<path d="M446.345 94.4258H449.745" stroke="#008484" stroke-width="0.719789" stroke-linecap="round" stroke-linejoin="round"/>
<path d="M446.708 96.2754H451.052" stroke="#008484" stroke-width="0.719789" stroke-linecap="round" stroke-linejoin="round"/>
<path d="M447.141 98.1211H449.158" stroke="#008484" stroke-width="0.719789" stroke-linecap="round" stroke-linejoin="round"/>
<path d="M450.199 98.1211H454.635" stroke="#008484" stroke-width="0.719789" stroke-linecap="round" stroke-linejoin="round"/>
<path d="M452.216 96.2754H454.39" stroke="#008484" stroke-width="0.719789" stroke-linecap="round" stroke-linejoin="round"/>
<path d="M462.537 94.4258H465.937" stroke="#008484" stroke-width="0.719789" stroke-linecap="round" stroke-linejoin="round"/>
<path d="M462.9 96.2754H467.245" stroke="#008484" stroke-width="0.719789" stroke-linecap="round" stroke-linejoin="round"/>
<path d="M463.334 98.1211H465.345" stroke="#008484" stroke-width="0.719789" stroke-linecap="round" stroke-linejoin="round"/>
<path d="M466.391 98.1211H470.823" stroke="#008484" stroke-width="0.719789" stroke-linecap="round" stroke-linejoin="round"/>
<path d="M468.408 96.2754H470.583" stroke="#008484" stroke-width="0.719789" stroke-linecap="round" stroke-linejoin="round"/>
<path opacity="0.5" d="M477.019 145.444H503.738C504.305 145.444 504.693 144.877 504.489 144.346L501.844 137.552C501.722 137.24 501.426 137.041 501.094 137.041H474.375C473.808 137.041 473.42 137.608 473.624 138.139L476.269 144.933C476.391 145.245 476.687 145.444 477.019 145.444Z" fill="#99E5E5" stroke="#008484" stroke-width="0.510489" stroke-miterlimit="10"/>
<path opacity="0.5" d="M473.89 135.096H500.609C501.175 135.096 501.563 134.529 501.359 133.998L498.715 127.204C498.592 126.892 498.296 126.693 497.964 126.693H471.245C470.679 126.693 470.291 127.26 470.495 127.791L473.139 134.586C473.262 134.897 473.558 135.096 473.89 135.096Z" fill="#99E5E5" stroke="#008484" stroke-width="0.510489" stroke-miterlimit="10"/>
<path opacity="0.5" d="M481.701 118.465C482.72 116.293 481.435 113.54 478.829 112.317C476.223 111.094 473.284 111.863 472.265 114.034C471.245 116.206 472.531 118.959 475.136 120.182C477.742 121.405 480.681 120.636 481.701 118.465Z" fill="#99E5E5" stroke="#008484" stroke-width="0.510489" stroke-miterlimit="10"/>
</g>
<defs>
<linearGradient id="paint0_linear_629_21777" x1="110.339" y1="85.6133" x2="119.216" y2="86.8475" gradientUnits="userSpaceOnUse">
<stop stop-color="#33CCCC"/>
<stop offset="1" stop-color="#009999"/>
</linearGradient>
<clipPath id="clip0_629_21777">
<rect width="8.19994" height="45.1997" fill="white" transform="translate(217.399 62.8047)"/>
</clipPath>
<clipPath id="clip1_629_21777">
<rect width="193.071" height="163.711" fill="white" transform="translate(426.215 25.7324)"/>
</clipPath>
</defs>
</svg>
